<svg width="113" height="34" viewBox="0 0 113 34" fill="none" xmlns="http://www.w3.org/2000/svg">
<path d="M81.9544 33.5479L88.6621 0H98.9049L96.4575 12.2074L94.2367 21.1596L92.6957 28.5745L91.6987 33.5479H81.9544ZM99.8113 34C98.1797 34 96.7143 33.7287 95.4151 33.1862C94.1158 32.6135 93.0885 31.6791 92.3332 30.383C91.608 29.0567 91.2454 27.2784 91.2454 25.0479C91.2454 22.9379 91.4872 20.8883 91.9706 18.8989C92.454 16.9096 93.1792 15.1312 94.146 13.5638C95.1129 11.9663 96.3215 10.7003 97.7718 9.76595C99.2221 8.83156 100.899 8.36436 102.803 8.36436C104.464 8.36436 106.066 8.81649 107.607 9.72074C109.178 10.5949 110.462 11.8759 111.459 13.5638C112.486 15.2518 113 17.3316 113 19.8032C113 21.8227 112.653 23.7065 111.958 25.4548C111.263 27.1729 110.296 28.6799 109.057 29.976C107.848 31.242 106.443 32.2367 104.842 32.9601C103.271 33.6534 101.594 34 99.8113 34ZM98.1344 25.9521C99.0408 25.9521 99.8264 25.7261 100.491 25.2739C101.156 24.7917 101.67 24.1285 102.032 23.2846C102.425 22.4406 102.621 21.4459 102.621 20.3005C102.621 19.1551 102.289 18.2207 101.624 17.4973C100.99 16.7739 100.098 16.4122 98.9502 16.4122C98.074 16.4122 97.2884 16.6534 96.5934 17.1356C95.9287 17.5878 95.4 18.2358 95.0072 19.0798C94.6446 19.9237 94.4633 20.9184 94.4633 22.0638C94.4633 23.2092 94.7806 24.1436 95.4151 24.867C96.0798 25.5904 96.9862 25.9521 98.1344 25.9521Z" fill="black"/>
<path d="M73.1117 34C70.3924 34 68.0054 33.5328 65.9508 32.5984C63.9265 31.664 62.3402 30.3378 61.192 28.6197C60.0439 26.9016 59.4698 24.8821 59.4698 22.5612C59.4698 19.8484 60.1043 17.422 61.3733 15.2819C62.6423 13.1419 64.425 11.4539 66.7213 10.2181C69.0478 8.98229 71.7521 8.36438 74.8339 8.36438C77.4928 8.36438 79.7589 8.83158 81.6322 9.76597C83.5055 10.7004 84.9408 11.9814 85.9378 13.6091C86.9349 15.2367 87.4335 17.1206 87.4335 19.2607C87.4335 20.0142 87.373 20.7527 87.2522 21.4761C87.1615 22.1995 87.0407 22.8927 86.8896 23.5559H67.6277L68.5795 18.6277H82.1761L77.9158 19.9388C78.1576 18.9743 78.1424 18.1605 77.8705 17.4974C77.6288 16.8041 77.2058 16.2766 76.6015 15.9149C75.9972 15.5231 75.257 15.3271 74.3807 15.3271C73.1419 15.3271 72.1599 15.6587 71.4348 16.3218C70.7096 16.9849 70.1809 17.844 69.8485 18.8989C69.5464 19.9539 69.3953 21.0541 69.3953 22.1995C69.3953 23.7367 69.8032 24.8369 70.619 25.5C71.465 26.133 72.6887 26.4495 74.2901 26.4495C75.2267 26.4495 76.1634 26.3138 77.1 26.0426C78.0367 25.7411 78.8978 25.3041 79.6834 24.7314L83.9437 30.9255C82.2516 32.0709 80.4841 32.8697 78.641 33.3218C76.8281 33.7739 74.985 34 73.1117 34Z" fill="black"/>
<path d="M10.8773 34C8.67161 34 6.57169 33.789 4.57752 33.367C2.61357 32.9149 1.08773 32.3723 0 31.7394L3.53512 24.7766C4.77392 25.5301 6.16379 26.1028 7.70474 26.4947C9.2759 26.8564 10.7564 27.0372 12.1463 27.0372C13.2945 27.0372 14.08 26.9317 14.503 26.7208C14.9563 26.4796 15.1829 26.1933 15.1829 25.8617C15.1829 25.5 14.8807 25.2438 14.2764 25.0931C13.6721 24.9122 12.8866 24.7615 11.9197 24.641C10.983 24.5204 9.98595 24.3395 8.92843 24.0984C7.87092 23.8573 6.85873 23.5106 5.89186 23.0585C4.9552 22.5763 4.18473 21.9131 3.58044 21.0692C2.97614 20.2252 2.674 19.1099 2.674 17.7234C2.674 15.5833 3.2934 13.8351 4.5322 12.4787C5.80122 11.0922 7.49324 10.0674 9.60826 9.40427C11.7233 8.71101 14.0649 8.36438 16.6332 8.36438C18.4461 8.36438 20.1834 8.53016 21.8452 8.86172C23.5372 9.16314 25.0328 9.61527 26.3321 10.2181L22.797 17.1809C21.4977 16.4273 20.1985 15.93 18.8993 15.6888C17.6303 15.4477 16.467 15.3271 15.4095 15.3271C14.2311 15.3271 13.4153 15.4628 12.9621 15.7341C12.5089 15.9752 12.2823 16.2465 12.2823 16.5479C12.2823 16.9096 12.5844 17.1809 13.1887 17.3617C13.793 17.5426 14.5635 17.7083 15.5001 17.8591C16.4368 17.9796 17.4339 18.1605 18.4914 18.4016C19.5791 18.6126 20.5913 18.9592 21.528 19.4415C22.4646 19.8936 23.2351 20.5417 23.8394 21.3856C24.4437 22.2296 24.7458 23.3449 24.7458 24.7314C24.7458 26.781 24.1113 28.4991 22.8423 29.8856C21.6035 31.2722 19.9266 32.3121 17.8115 33.0053C15.7267 33.6684 13.4153 34 10.8773 34Z" fill="black"/>
<path d="M50.0693 8.81713L44.9637 17.8025H50.9106L48.9976 28.9192L57.0652 13.6468H53.0095L55.6225 8.81713H66.597L53.227 33.5485H43.1202L41.2967 22.1138L35.3702 33.5485H25.3087L21.3204 8.81713H30.6567L32.4386 21.7555L39.4492 8.81713H50.0693Z" fill="black"/>
</svg>
